# xmcd
#
# Track frame offsets: 
#        150
#        29164
#        42977
#        57311
#        71826
#        88140
#        103205
#        119737
#        136656
#        152856
#        170784
#        187118
#        205112
#        222056
#        238475
#
# Disc length: 3381 seconds
#
# Revision: 0
# Processed by: cddbd v1.5.2PL0 Copyright (c) Steve Scherf et al.
# Submitted via: ExactAudioCopy v0.99pb5
#
DISCID=f20d330f
DTITLE=Alabama - The Music of Alabama [Disc 1]
DYEAR=2009
DGENRE=Country
TTITLE0=My Home's in Alabama
TTITLE1=Tennessee River
TTITLE2=Why Lady Why
TTITLE3=Old Flame
TTITLE4=Feels So Right
TTITLE5=Love In The First Degree
TTITLE6=Mountain Music
TTITLE7=Take Me Down
TTITLE8=Close Enough To Perfect
TTITLE9=Dixieland Delight
TTITLE10=The Closer You Get
TTITLE11=Lady Down On Love
TTITLE12=Roll On (Eighteen Wheeler)
TTITLE13=When We Make Love
TTITLE14=If You're Gonna Play In Texas (You Gotta Have A Fiddle In The
TTITLE14=Band)
EXTD=
EXTT0=
EXTT1=
EXTT2=
EXTT3=
EXTT4=
EXTT5=
EXTT6=
EXTT7=
EXTT8=
EXTT9=
EXTT10=
EXTT11=
EXTT12=
EXTT13=
EXTT14=
PLAYORDER=
